<svg width="385" height="60" viewBox="0 0 385 60" fill="none" xmlns="http://www.w3.org/2000/svg">
<g clip-path="url(#clip0)">
<path d="M67.9741 0H0V15H67.9741V0Z" fill="#F9B000"/>
<path d="M67.9741 22.5H0V37.5H67.9741V22.5Z" fill="#F18800"/>
<path d="M67.9741 45H0V60H67.9741V45Z" fill="#E74011"/>
<path d="M90.5389 0.0925903V60H140.144V49.4444L104.992 49.3518V35.0926H140.144V24.4444H104.992V10.7407H140.144V0.0925903" fill="#1D1D1B"/>
<path d="M335.675 49.7222V60H365.978C371.091 60.2856 376.132 58.7048 380.151 55.5555C381.803 54.0879 383.098 52.2669 383.938 50.2298C384.778 48.1928 385.141 45.993 385 43.7963C385.124 40.8523 384.413 37.933 382.949 35.3704C381.489 32.881 379.314 30.8818 376.701 29.6296C379.185 27.9951 381.284 25.8474 382.855 23.3333C384.225 21.0701 384.935 18.4737 384.907 15.8333C385.062 13.6214 384.706 11.4035 383.866 9.3493C383.025 7.29507 381.723 5.45896 380.058 3.98146C375.613 1.01533 370.294 -0.38641 364.953 -2.28114e-05H335.675V10.2778H360.197C362.804 10.1263 365.397 10.7381 367.657 12.037C368.469 12.7068 369.105 13.5622 369.511 14.5298C369.917 15.4974 370.081 16.5484 369.988 17.5926C370.111 18.6032 369.969 19.6283 369.578 20.5689C369.186 21.5095 368.556 22.334 367.75 22.9629C365.475 24.307 362.837 24.9213 360.197 24.7222H342.295V35H360.943C363.521 34.8332 366.09 35.4466 368.31 36.7592C369.128 37.4486 369.774 38.3181 370.194 39.2986C370.615 40.2791 370.8 41.3436 370.734 42.4074C370.836 43.4389 370.676 44.4793 370.269 45.4335C369.861 46.3878 369.22 47.2256 368.403 47.8704C366.196 49.301 363.569 49.9532 360.943 49.7222" fill="#1D1D1B"/>
<path d="M299.776 11.9444L290.918 35H308.914L299.776 11.9444ZM293.529 0H307.049L332.784 60H318.611L313.11 45.7407H286.815L281.5 60H267.98L293.529 0Z" fill="#1D1D1B"/>
<path d="M166.345 10.8333V24.6296H185.553C187.769 24.8322 189.985 24.241 191.801 22.963C192.52 22.3129 193.079 21.5071 193.435 20.6079C193.791 19.7088 193.933 18.7404 193.852 17.7778C193.964 16.799 193.835 15.8079 193.478 14.889C193.121 13.97 192.546 13.1504 191.801 12.5C189.985 11.2219 187.769 10.6308 185.553 10.8333H166.345ZM185.553 49.3518C187.769 49.5544 189.985 48.9632 191.801 47.6852C192.541 47.0111 193.112 46.1744 193.468 45.2418C193.824 44.3093 193.956 43.3068 193.852 42.3148C193.972 41.3519 193.866 40.3745 193.542 39.459C193.219 38.5435 192.686 37.7146 191.987 37.037C190.184 35.7262 187.967 35.1019 185.74 35.2778H166.345V49.3518H185.553ZM187.232 60H153.664V-8.66625e-06H185.18C188.304 -0.0219123 191.424 0.225935 194.505 0.740732C196.571 1.06054 198.561 1.75078 200.379 2.77777C202.513 4.12662 204.249 6.01117 205.414 8.24073C206.644 10.5145 207.255 13.0679 207.186 15.6481C207.264 18.6285 206.523 21.5737 205.041 24.1667C203.338 26.6804 200.988 28.6948 198.234 30C200.975 31.0592 203.342 32.8944 205.041 35.2778C206.693 37.7723 207.509 40.7213 207.372 43.7037C207.551 45.9866 207.208 48.2801 206.369 50.4127C205.529 52.5453 204.214 54.4617 202.524 56.0185C197.96 59.0322 192.508 60.4345 187.045 60" fill="#1D1D1B"/>
<path d="M247.187 10.7407H231.895V28.4259H247.933C250.936 28.5184 253.905 27.7812 256.511 26.2963C257.469 25.4591 258.22 24.4137 258.706 23.2414C259.191 22.0691 259.397 20.8014 259.308 19.537C259.484 17.9726 259.166 16.3926 258.397 15.0157C257.629 13.6389 256.448 12.5333 255.019 11.8519C252.501 10.9981 249.845 10.6212 247.187 10.7407V10.7407ZM219.214 5.73048e-06H243.83C250.43 -0.346909 257.043 0.372321 263.411 2.12964C266.301 3.52082 268.728 5.70602 270.404 8.42593C272.411 11.782 273.413 15.6359 273.295 19.537C273.54 23.6266 272.533 27.6941 270.404 31.2037C268.57 33.7056 266.134 35.7111 263.318 37.037C258.296 38.6558 253.019 39.3463 247.746 39.0741H231.895V60H219.214V5.73048e-06Z" fill="#1D1D1B"/>
</g>
<defs>
<clipPath id="clip0">
<rect width="385" height="60" fill="white"/>
</clipPath>
</defs>
</svg>
